v 0.5 0.5 0
v -0.5 0.5 0
v 0.5 0.4903926402016152 0.09754516100806412
v -0.5 0.4903926402016152 0.09754516100806412
v 0.5 0.46193976625564337 0.1913417161825449
v -0.5 0.46193976625564337 0.1913417161825449
v 0.5 0.4157348061512726 0.2777851165098011
v -0.5 0.4157348061512726 0.2777851165098011
v 0.5 0.3535533905932738 0.35355339059327373
v -0.5 0.3535533905932738 0.35355339059327373
v 0.5 0.27778511650980114 0.4157348061512726
v -0.5 0.27778511650980114 0.4157348061512726
v 0.5 0.19134171618254492 0.46193976625564337
v -0.5 0.19134171618254492 0.46193976625564337
v 0.5 0.09754516100806417 0.4903926402016152
v -0.5 0.09754516100806417 0.4903926402016152
v 0.5 3.061616997868383e-17 0.5
v -0.5 3.061616997868383e-17 0.5
v 0.5 -0.0975451610080641 0.4903926402016152
v -0.5 -0.0975451610080641 0.4903926402016152
v 0.5 -0.19134171618254486 0.46193976625564337
v -0.5 -0.19134171618254486 0.46193976625564337
v 0.5 -0.277785116509801 0.4157348061512727
v -0.5 -0.277785116509801 0.4157348061512727
v 0.5 -0.35355339059327373 0.3535533905932738
v -0.5 -0.35355339059327373 0.3535533905932738
v 0.5 -0.4157348061512727 0.2777851165098011
v -0.5 -0.4157348061512727 0.2777851165098011
v 0.5 -0.46193976625564337 0.19134171618254495
v -0.5 -0.46193976625564337 0.19134171618254495
v 0.5 -0.4903926402016152 0.0975451610080643
v -0.5 -0.4903926402016152 0.0975451610080643
v 0.5 -0.5 6.123233995736766e-17
v -0.5 -0.5 6.123233995736766e-17
v 0.5 -0.4903926402016152 -0.09754516100806418
v -0.5 -0.4903926402016152 -0.09754516100806418
v 0.5 -0.4619397662556434 -0.19134171618254484
v -0.5 -0.4619397662556434 -0.19134171618254484
v 0.5 -0.41573480615127273 -0.277785116509801
v -0.5 -0.41573480615127273 -0.277785116509801
v 0.5 -0.35355339059327384 -0.35355339059327373
v -0.5 -0.35355339059327384 -0.35355339059327373
v 0.5 -0.2777851165098011 -0.4157348061512726
v -0.5 -0.2777851165098011 -0.4157348061512726
v 0.5 -0.19134171618254517 -0.46193976625564326
v -0.5 -0.19134171618254517 -0.46193976625564326
v 0.5 -0.09754516100806433 -0.49039264020161516
v -0.5 -0.09754516100806433 -0.49039264020161516
v 0.5 -9.184850993605148e-17 -0.5
v -0.5 -9.184850993605148e-17 -0.5
v 0.5 0.09754516100806415 -0.4903926402016152
v -0.5 0.09754516100806415 -0.4903926402016152
v 0.5 0.191341716182545 -0.4619397662556433
v -0.5 0.191341716182545 -0.4619397662556433
v 0.5 0.2777851165098009 -0.41573480615127273
v -0.5 0.2777851165098009 -0.41573480615127273
v 0.5 0.3535533905932737 -0.35355339059327384
v -0.5 0.3535533905932737 -0.35355339059327384
v 0.5 0.4157348061512726 -0.2777851165098011
v -0.5 0.4157348061512726 -0.2777851165098011
v 0.5 0.46193976625564326 -0.1913417161825452
v -0.5 0.46193976625564326 -0.1913417161825452
v 0.5 0.49039264020161516 -0.09754516100806436
v -0.5 0.49039264020161516 -0.09754516100806436
v 0.5 0 0
v -0.5 0 0
vn 0 1 0
vn 0 1 0
vn 0 0.9807852804032304 0.19509032201612825
vn 0 0.9807852804032304 0.19509032201612825
vn 0 0.9238795325112867 0.3826834323650898
vn 0 0.9238795325112867 0.3826834323650898
vn 0 0.8314696123025452 0.5555702330196022
vn 0 0.8314696123025452 0.5555702330196022
vn 0 0.7071067811865476 0.7071067811865475
vn 0 0.7071067811865476 0.7071067811865475
vn 0 0.5555702330196023 0.8314696123025452
vn 0 0.5555702330196023 0.8314696123025452
vn 0 0.38268343236508984 0.9238795325112867
vn 0 0.38268343236508984 0.9238795325112867
vn 0 0.19509032201612833 0.9807852804032304
vn 0 0.19509032201612833 0.9807852804032304
vn 0 6.123233995736766e-17 1
vn 0 6.123233995736766e-17 1
vn 0 -0.1950903220161282 0.9807852804032304
vn 0 -0.1950903220161282 0.9807852804032304
vn 0 -0.3826834323650897 0.9238795325112867
vn 0 -0.3826834323650897 0.9238795325112867
vn 0 -0.555570233019602 0.8314696123025453
vn 0 -0.555570233019602 0.8314696123025453
vn 0 -0.7071067811865475 0.7071067811865476
vn 0 -0.7071067811865475 0.7071067811865476
vn 0 -0.8314696123025453 0.5555702330196022
vn 0 -0.8314696123025453 0.5555702330196022
vn 0 -0.9238795325112867 0.3826834323650899
vn 0 -0.9238795325112867 0.3826834323650899
vn 0 -0.9807852804032304 0.1950903220161286
vn 0 -0.9807852804032304 0.1950903220161286
vn 0 -1 1.2246467991473532e-16
vn 0 -1 1.2246467991473532e-16
vn 0 -0.9807852804032304 -0.19509032201612836
vn 0 -0.9807852804032304 -0.19509032201612836
vn 0 -0.9238795325112868 -0.38268343236508967
vn 0 -0.9238795325112868 -0.38268343236508967
vn 0 -0.8314696123025455 -0.555570233019602
vn 0 -0.8314696123025455 -0.555570233019602
vn 0 -0.7071067811865477 -0.7071067811865475
vn 0 -0.7071067811865477 -0.7071067811865475
vn 0 -0.5555702330196022 -0.8314696123025452
vn 0 -0.5555702330196022 -0.8314696123025452
vn 0 -0.38268343236509034 -0.9238795325112865
vn 0 -0.38268343236509034 -0.9238795325112865
vn 0 -0.19509032201612866 -0.9807852804032303
vn 0 -0.19509032201612866 -0.9807852804032303
vn 0 -1.8369701987210297e-16 -1
vn 0 -1.8369701987210297e-16 -1
vn 0 0.1950903220161283 -0.9807852804032304
vn 0 0.1950903220161283 -0.9807852804032304
vn 0 0.38268343236509 -0.9238795325112866
vn 0 0.38268343236509 -0.9238795325112866
vn 0 0.5555702330196018 -0.8314696123025455
vn 0 0.5555702330196018 -0.8314696123025455
vn 0 0.7071067811865474 -0.7071067811865477
vn 0 0.7071067811865474 -0.7071067811865477
vn 0 0.8314696123025452 -0.5555702330196022
vn 0 0.8314696123025452 -0.5555702330196022
vn 0 0.9238795325112865 -0.3826834323650904
vn 0 0.9238795325112865 -0.3826834323650904
vn 0 0.9807852804032303 -0.19509032201612872
vn 0 0.9807852804032303 -0.19509032201612872
vn 1 0 0
vn -1 0 0
vn 1 0 0
vn -1 0 0
vn 1 0 0
vn -1 0 0
vn 1 0 0
vn -1 0 0
vn 1 0 0
vn -1 0 0
vn 1 0 0
vn -1 0 0
vn 1 0 0
vn -1 0 0
vn 1 0 0
vn -1 0 0
vn 1 0 0
vn -1 0 0
vn 1 0 0
vn -1 0 0
vn 1 0 0
vn -1 0 0
vn 1 0 0
vn -1 0 0
vn 1 0 0
vn -1 0 0
vn 1 0 0
vn -1 0 0
vn 1 0 0
vn -1 0 0
vn 1 0 0
vn -1 0 0
vn 1 0 0
vn -1 0 0
vn 1 0 0
vn -1 0 0
vn 1 0 0
vn -1 0 0
vn 1 0 0
vn -1 0 0
vn 1 0 0
vn -1 0 0
vn 1 0 0
vn -1 0 0
vn 1 0 0
vn -1 0 0
vn 1 0 0
vn -1 0 0
vn 1 0 0
vn -1 0 0
vn 1 0 0
vn -1 0 0
vn 1 0 0
vn -1 0 0
vn 1 0 0
vn -1 0 0
vn 1 0 0
vn -1 0 0
vn 1 0 0
vn -1 0 0
vn 1 0 0
vn -1 0 0
vn 1 0 0
vn -1 0 0
f 1//1 2//1 3//1
f 3//2 2//2 4//2
f 3//3 4//3 5//3
f 5//4 4//4 6//4
f 5//5 6//5 7//5
f 7//6 6//6 8//6
f 7//7 8//7 9//7
f 9//8 8//8 10//8
f 9//9 10//9 11//9
f 11//10 10//10 12//10
f 11//11 12//11 13//11
f 13//12 12//12 14//12
f 13//13 14//13 15//13
f 15//14 14//14 16//14
f 15//15 16//15 17//15
f 17//16 16//16 18//16
f 17//17 18//17 19//17
f 19//18 18//18 20//18
f 19//19 20//19 21//19
f 21//20 20//20 22//20
f 21//21 22//21 23//21
f 23//22 22//22 24//22
f 23//23 24//23 25//23
f 25//24 24//24 26//24
f 25//25 26//25 27//25
f 27//26 26//26 28//26
f 27//27 28//27 29//27
f 29//28 28//28 30//28
f 29//29 30//29 31//29
f 31//30 30//30 32//30
f 31//31 32//31 33//31
f 33//32 32//32 34//32
f 33//33 34//33 35//33
f 35//34 34//34 36//34
f 35//35 36//35 37//35
f 37//36 36//36 38//36
f 37//37 38//37 39//37
f 39//38 38//38 40//38
f 39//39 40//39 41//39
f 41//40 40//40 42//40
f 41//41 42//41 43//41
f 43//42 42//42 44//42
f 43//43 44//43 45//43
f 45//44 44//44 46//44
f 45//45 46//45 47//45
f 47//46 46//46 48//46
f 47//47 48//47 49//47
f 49//48 48//48 50//48
f 49//49 50//49 51//49
f 51//50 50//50 52//50
f 51//51 52//51 53//51
f 53//52 52//52 54//52
f 53//53 54//53 55//53
f 55//54 54//54 56//54
f 55//55 56//55 57//55
f 57//56 56//56 58//56
f 57//57 58//57 59//57
f 59//58 58//58 60//58
f 59//59 60//59 61//59
f 61//60 60//60 62//60
f 61//61 62//61 63//61
f 63//62 62//62 64//62
f 63//63 64//63 1//63
f 1//64 64//64 2//64
f 65//65 1//65 3//65
f 66//66 4//66 2//66
f 65//67 3//67 5//67
f 66//68 6//68 4//68
f 65//69 5//69 7//69
f 66//70 8//70 6//70
f 65//71 7//71 9//71
f 66//72 10//72 8//72
f 65//73 9//73 11//73
f 66//74 12//74 10//74
f 65//75 11//75 13//75
f 66//76 14//76 12//76
f 65//77 13//77 15//77
f 66//78 16//78 14//78
f 65//79 15//79 17//79
f 66//80 18//80 16//80
f 65//81 17//81 19//81
f 66//82 20//82 18//82
f 65//83 19//83 21//83
f 66//84 22//84 20//84
f 65//85 21//85 23//85
f 66//86 24//86 22//86
f 65//87 23//87 25//87
f 66//88 26//88 24//88
f 65//89 25//89 27//89
f 66//90 28//90 26//90
f 65//91 27//91 29//91
f 66//92 30//92 28//92
f 65//93 29//93 31//93
f 66//94 32//94 30//94
f 65//95 31//95 33//95
f 66//96 34//96 32//96
f 65//97 33//97 35//97
f 66//98 36//98 34//98
f 65//99 35//99 37//99
f 66//100 38//100 36//100
f 65//101 37//101 39//101
f 66//102 40//102 38//102
f 65//103 39//103 41//103
f 66//104 42//104 40//104
f 65//105 41//105 43//105
f 66//106 44//106 42//106
f 65//107 43//107 45//107
f 66//108 46//108 44//108
f 65//109 45//109 47//109
f 66//110 48//110 46//110
f 65//111 47//111 49//111
f 66//112 50//112 48//112
f 65//113 49//113 51//113
f 66//114 52//114 50//114
f 65//115 51//115 53//115
f 66//116 54//116 52//116
f 65//117 53//117 55//117
f 66//118 56//118 54//118
f 65//119 55//119 57//119
f 66//120 58//120 56//120
f 65//121 57//121 59//121
f 66//122 60//122 58//122
f 65//123 59//123 61//123
f 66//124 62//124 60//124
f 65//125 61//125 63//125
f 66//126 64//126 62//126
f 65//127 63//127 1//127
f 66//128 2//128 64//128
